<svg width="32" height="32" viewBox="0 0 32 32" fill="none" xmlns="http://www.w3.org/2000/svg">
<path d="M28.1888 21.7563C29.8865 21.6726 31.4248 20.5952 31.7335 18.9237C31.9085 17.9758 32 16.9986 32 16C32 7.16344 24.8366 0 16 0C13.276 0 10.7111 0.680702 8.46591 1.88128C6.18402 3.1015 7.47228 5.90631 10.058 5.80726C13.1699 5.68805 16.3982 5.62624 19.0081 5.71811C20.3069 5.76383 21.5109 5.84934 22.4941 5.99825C22.984 6.07245 23.4725 6.17014 23.9154 6.30649C24.3057 6.42667 24.8996 6.64592 25.4081 7.08749C26.3713 7.92404 26.4865 9.08563 26.2918 9.92148C26.1324 10.6061 25.7665 11.1623 25.5016 11.5183C24.9381 12.2755 24.089 13.0853 23.2216 13.8482C22.0732 14.8583 20.5943 16.0377 19.1278 17.2073C18.3619 17.8182 17.5993 18.4264 16.889 19.0064C15.8192 19.8798 14.8403 20.7095 14.0396 21.461C13.5081 21.9597 13.8001 22.465 14.528 22.4292L28.1888 21.7563Z" fill="#FFC107"/>
<path d="M18.9548 26.371C22.5897 26.371 24.0435 30.3072 20.5588 31.3412C19.114 31.7699 17.5839 32 16 32C7.16344 32 0 24.8366 0 16C0 14.6864 0.158293 13.4098 0.456846 12.1882C0.622778 11.5093 1.22919 11.0434 1.92661 10.9975C4.16619 10.8502 7.16915 10.6738 10.2347 10.5564C13.3102 10.4385 16.4057 10.3818 18.8457 10.4677C19.3183 10.4844 19.4989 11.14 19.1219 11.4253C18.3192 12.0326 17.4248 12.6579 16.5463 13.3581C15.7578 13.9866 14.8649 14.6208 14.0488 15.2871C12.9516 16.1829 11.7793 17.1091 10.8601 17.9718C9.9693 18.8078 9.10453 19.7111 8.53111 20.5946C8.24689 21.0324 7.93534 21.6131 7.79958 22.2888C7.65175 23.0246 7.70305 23.973 8.3148 24.824C8.87523 25.6037 9.66667 25.9605 10.2768 26.1341C10.9033 26.3122 11.5925 26.371 12.2848 26.371H18.9548Z" fill="#FFC107"/>
<path d="M22.6456 10.8861C22.6452 10.8863 22.6386 10.8838 22.6266 10.8781C22.6399 10.8832 22.6459 10.886 22.6456 10.8861Z" fill="#FFC107"/>
<path d="M21.8263 8.56521C21.8269 8.56415 21.8269 8.56419 21.8263 8.56521V8.56521Z" fill="#FFC107"/>
<path d="M11.5388 21.5574C11.5381 21.5572 11.5381 21.5572 11.5388 21.5574V21.5574Z" fill="#FFC107"/>
</svg>
