<svg width="106" height="36" viewBox="0 0 106 36" fill="none" xmlns="http://www.w3.org/2000/svg">
<path d="M28.1888 23.7563C29.8865 23.6726 31.4248 22.5952 31.7335 20.9237C31.9085 19.9758 32 18.9986 32 18C32 9.16344 24.8366 2 16 2C13.276 2 10.7111 2.6807 8.46591 3.88128C6.18402 5.1015 7.47228 7.90631 10.058 7.80726C13.1699 7.68805 16.3982 7.62624 19.0081 7.71811C20.3069 7.76383 21.5109 7.84934 22.4941 7.99825C22.984 8.07245 23.4725 8.17014 23.9154 8.30649C24.3057 8.42667 24.8996 8.64592 25.4081 9.08749C26.3713 9.92404 26.4865 11.0856 26.2918 11.9215C26.1324 12.6061 25.7665 13.1623 25.5016 13.5183C24.9381 14.2755 24.089 15.0853 23.2216 15.8482C22.0732 16.8583 20.5943 18.0377 19.1278 19.2073C18.3619 19.8182 17.5993 20.4264 16.889 21.0064C15.8192 21.8798 14.8403 22.7095 14.0396 23.461C13.5081 23.9597 13.8001 24.465 14.528 24.4292L28.1888 23.7563Z" fill="#FFC107"/>
<path d="M18.9548 28.371C22.5897 28.371 24.0435 32.3072 20.5588 33.3412C19.114 33.7699 17.5839 34 16 34C7.16344 34 0 26.8366 0 18C0 16.6864 0.158293 15.4098 0.456846 14.1882C0.622778 13.5093 1.22919 13.0434 1.92661 12.9975C4.16619 12.8502 7.16915 12.6738 10.2347 12.5564C13.3102 12.4385 16.4057 12.3818 18.8457 12.4677C19.3183 12.4844 19.4989 13.14 19.1219 13.4253C18.3192 14.0326 17.4248 14.6579 16.5463 15.3581C15.7578 15.9866 14.8649 16.6208 14.0488 17.2871C12.9516 18.1829 11.7793 19.1091 10.8601 19.9718C9.9693 20.8078 9.10453 21.7111 8.53111 22.5946C8.24689 23.0324 7.93534 23.6131 7.79958 24.2888C7.65175 25.0246 7.70305 25.973 8.3148 26.824C8.87523 27.6037 9.66667 27.9605 10.2768 28.1341C10.9033 28.3122 11.5925 28.371 12.2848 28.371H18.9548Z" fill="#FFC107"/>
<path d="M22.6456 12.8861C22.6452 12.8863 22.6386 12.8838 22.6266 12.8781C22.6399 12.8832 22.6459 12.886 22.6456 12.8861Z" fill="#FFC107"/>
<path d="M21.8263 10.5652C21.8269 10.5641 21.8269 10.5642 21.8263 10.5652V10.5652Z" fill="#FFC107"/>
<path d="M11.5388 23.5574C11.5381 23.5572 11.5381 23.5572 11.5388 23.5574V23.5574Z" fill="#FFC107"/>
<path d="M45.2364 23.168H52.7724V26H41.3484V23.408L48.8364 12.08H41.3484V9.248H52.7724V11.84L45.2364 23.168ZM68.3526 12.704L60.1206 32.288H56.5446L59.4246 25.664L54.0966 12.704H57.8646L61.2966 21.992L64.7766 12.704H68.3526Z" fill="#F5F5F5"/>
<path d="M73.5238 14.768C73.9558 14.064 74.5158 13.512 75.2038 13.112C75.9078 12.712 76.7078 12.512 77.6038 12.512V16.04H76.7158C75.6598 16.04 74.8598 16.288 74.3158 16.784C73.7878 17.28 73.5238 18.144 73.5238 19.376V26H70.1638V12.704H73.5238V14.768ZM81.5709 11.12C80.9789 11.12 80.4829 10.936 80.0829 10.568C79.6989 10.184 79.5069 9.712 79.5069 9.152C79.5069 8.592 79.6989 8.128 80.0829 7.76C80.4829 7.376 80.9789 7.184 81.5709 7.184C82.1629 7.184 82.6509 7.376 83.0349 7.76C83.4349 8.128 83.6349 8.592 83.6349 9.152C83.6349 9.712 83.4349 10.184 83.0349 10.568C82.6509 10.936 82.1629 11.12 81.5709 11.12ZM83.2269 12.704V26H79.8669V12.704H83.2269ZM93.8906 26L91.1546 21.872L88.7306 26H85.1306L89.4746 19.328L85.0826 12.704H88.8746L91.5866 16.808L94.0346 12.704H97.6346L93.2666 19.328L97.6826 26H93.8906Z" fill="#FFC107"/>
</svg>
